<?xml version="1.0" standalone="no"?>
<!DOCTYPE svg PUBLIC "-//W3C//DTD SVG 20010904//EN"
 "http://www.w3.org/TR/2001/REC-SVG-20010904/DTD/svg10.dtd">
<svg version="1.0" xmlns="http://www.w3.org/2000/svg"
 width="2635.000000pt" height="1948.000000pt" viewBox="0 0 2635.000000 1948.000000"
 preserveAspectRatio="xMidYMid meet">
<metadata>
Created by potrace 1.16, written by Peter Selinger 2001-2019
</metadata>
<g transform="translate(0.000000,1948.000000) scale(0.100000,-0.100000)"
fill="#000000" stroke="none">
<path d="M7730 14725 l0 -3094 928 -4 c909 -3 929 -3 1019 -25 479 -112 854
-401 1008 -776 51 -125 68 -213 67 -356 -1 -541 -248 -982 -667 -1190 -115
-57 -219 -92 -343 -117 -76 -15 -142 -17 -524 -14 l-438 3 0 -227 0 -227 473
6 c259 4 594 3 742 -3 251 -8 278 -11 388 -39 130 -34 287 -104 400 -179 96
-63 253 -217 317 -309 102 -148 168 -309 196 -484 19 -116 13 -387 -11 -495
-56 -250 -164 -456 -325 -616 -189 -188 -388 -272 -722 -304 -393 -37 -726
-39 -1880 -9 l-258 7 0 1440 0 1440 -72 -6 c-40 -4 -126 -10 -190 -13 l-118
-7 0 -1642 0 -1642 393 -7 c1858 -30 2318 -14 2621 91 186 64 341 161 493 307
477 456 645 1158 427 1787 -121 350 -332 622 -649 834 -107 72 -295 174 -383
209 l-44 17 105 109 c236 246 378 488 447 765 64 253 65 486 4 764 -145 653
-630 1151 -1254 1287 -79 18 -132 19 -815 15 -401 -2 -774 0 -827 4 l-98 7 0
2684 0 2684 5575 0 5575 0 0 -5578 0 -5579 -323 -6 c-444 -9 -2153 -8 -2592 2
-482 11 -613 -2 -809 -83 -144 -60 -341 -190 -430 -285 l-30 -31 2307 0 2307
0 0 5990 0 5990 -5995 0 -5995 0 0 -3095z"/>
<path d="M12631 12039 c-107 -4 -250 -13 -318 -18 -68 -6 -132 -11 -142 -11
-25 0 -54 -104 -55 -195 -1 -110 41 -164 158 -202 44 -14 112 -17 471 -19 754
-5 941 -15 1170 -60 340 -67 673 -222 990 -463 129 -97 409 -377 506 -506 319
-420 502 -862 550 -1325 16 -156 6 -496 -20 -665 -53 -348 -140 -623 -287
-904 -126 -242 -259 -425 -454 -625 -505 -517 -1169 -800 -1935 -822 -219 -7
-377 3 -602 38 l-143 22 0 1418 0 1418 -205 0 -205 0 0 -1653 0 -1654 483 -6
c699 -10 1014 7 1354 74 845 165 1500 617 1966 1356 87 139 239 442 304 608
90 228 151 457 190 705 26 164 26 626 0 790 -61 392 -199 768 -414 1126 -564
937 -1330 1430 -2410 1548 -292 32 -583 40 -952 25z"/>
<path d="M12312 5461 c-240 -59 -397 -236 -460 -518 -15 -71 -17 -164 -17
-1053 l0 -975 23 -90 c66 -262 221 -430 452 -492 82 -22 318 -25 400 -4 88 21
213 86 273 141 98 89 168 224 204 390 17 79 18 153 18 1040 0 1042 2 1008 -58
1172 -74 203 -239 350 -442 393 -98 21 -300 18 -393 -4z m288 -180 c202 -34
331 -166 375 -386 14 -71 15 -192 13 -1035 l-3 -955 -28 -78 c-74 -210 -197
-304 -412 -315 -262 -12 -420 111 -482 377 -17 70 -18 148 -18 1006 0 869 1
935 18 1010 22 93 63 184 107 238 94 112 261 166 430 138z"/>
<path d="M14503 5465 c-34 -7 -91 -27 -126 -44 -179 -86 -288 -241 -337 -479
-20 -101 -21 -121 -18 -1080 l3 -977 23 -80 c68 -243 201 -394 406 -462 73
-24 96 -27 231 -27 115 0 165 4 215 18 172 47 299 153 374 309 76 158 96 284
96 604 l0 213 -104 0 -104 0 -4 -272 c-5 -292 -10 -331 -64 -443 -80 -171
-268 -260 -479 -227 -186 29 -299 135 -356 335 l-24 82 0 960 c0 1065 -3 1021
67 1162 77 156 251 247 441 228 205 -20 332 -131 392 -341 13 -45 19 -114 22
-286 l5 -228 104 0 104 0 0 163 c0 370 -55 561 -205 713 -123 126 -258 175
-474 173 -69 0 -154 -7 -188 -14z"/>
<path d="M18921 5464 c-108 -23 -204 -75 -280 -151 -78 -79 -112 -136 -151
-253 -35 -104 -50 -208 -50 -345 0 -187 40 -325 137 -472 80 -123 191 -226
451 -420 309 -232 396 -318 473 -473 41 -82 59 -169 59 -283 0 -320 -135 -512
-387 -549 -161 -23 -318 24 -407 123 -93 104 -125 212 -133 452 l-6 167 -99 0
-100 0 4 -192 c6 -223 21 -299 89 -437 72 -146 203 -251 369 -297 91 -25 328
-26 419 -1 110 30 190 75 266 152 114 114 174 260 196 480 24 240 -23 438
-145 608 -62 87 -210 227 -351 331 -66 49 -156 116 -200 149 -233 175 -342
309 -396 487 -20 63 -23 96 -22 200 2 199 47 335 144 432 91 91 235 132 385
109 242 -36 362 -204 380 -532 l7 -119 99 0 98 0 0 104 c0 172 -39 338 -107
462 -39 71 -157 184 -226 217 -99 48 -196 67 -331 66 -67 0 -150 -7 -185 -15z"/>
<path d="M7690 3899 l0 -1560 428 4 c371 3 435 6 487 21 195 57 322 174 386
356 45 126 51 197 47 520 -5 326 -13 376 -80 502 -55 104 -179 203 -295 238
-24 7 -43 16 -43 20 0 4 21 13 46 20 58 17 149 76 193 125 45 52 88 145 108
236 25 110 25 521 0 637 -57 265 -205 397 -482 431 -50 6 -248 11 -442 11
l-353 0 0 -1561z m801 1345 c125 -28 209 -106 250 -232 20 -59 23 -94 27 -294
2 -147 0 -252 -8 -297 -22 -133 -90 -235 -186 -280 -89 -42 -158 -52 -421 -58
l-253 -6 0 592 0 591 261 0 c201 0 276 -4 330 -16z m4 -1378 c129 -36 224
-106 273 -203 50 -98 57 -149 57 -453 0 -310 -5 -346 -56 -457 -37 -78 -118
-154 -195 -182 -86 -33 -170 -41 -431 -41 l-243 0 0 681 0 681 268 -5 c206 -3
281 -8 327 -21z"/>
<path d="M9860 3900 l0 -1560 595 0 595 0 0 95 0 95 -490 0 -490 0 0 1465 0
1465 -105 0 -105 0 0 -1560z"/>
<path d="M16180 3900 l0 -1560 110 0 110 0 0 561 0 561 104 164 104 164 424
-722 424 -723 112 -3 c62 -1 112 0 112 4 0 4 -210 376 -467 827 -256 450 -466
824 -466 830 0 7 194 329 432 716 237 387 436 712 442 722 9 18 4 19 -104 19
l-113 0 -500 -811 -499 -811 -3 811 -2 811 -110 0 -110 0 0 -1560z"/>
</g>
</svg>
