<svg xmlns="http://www.w3.org/2000/svg" viewBox="0 0 256 256" fill="none">
  <defs>
    <linearGradient id="g" x1="0%" y1="0%" x2="100%" y2="100%">
      <stop offset="0%" stop-color="#41C4F4"/>
      <stop offset="100%" stop-color="#8A4BFF"/>
    </linearGradient>
  </defs>
  <circle cx="128" cy="128" r="128" fill="url(#g)"/>
  <path
    d="M79.6 160.8c10.9 7 23.8 10.6 38.2 10.6 21.5 0 37.5-8.9 37.5-22 0-11.5-9.5-18.3-25.9-23.5l-8.7-2.5c-17.5-5.1-29.2-13.3-29.2-28.6 0-16.1 13.4-27.9 33.9-27.9 14.5 0 27.4 3.6 37.5 10.7l-8.3 15.2c-8.3-4.8-18.7-7.2-29.2-7.2-16 0-25.6 7.4-25.6 17.6 0 10.5 10 15.5 27.3 20.4l8.7 2.5c19.9 5.6 33.2 13.7 33.2 29.1 0 16.2-13.5 28.5-37.9 28.5-15.4 0-28.4-3.7-39.2-11.2l8.6-15.4z"
    fill="#fff"
  />
</svg>
