<svg xmlns="http://www.w3.org/2000/svg" viewBox="0 0 256 256" fill="none">
  <path fill="#F46800" d="M127.9 0c-21.4 0-42.5 5.5-61 16C45.1 27.2 29 42.9 17.9 61.7 6.9 80.6 1.2 102.1.2 124.1c-.6 13.6.9 27.2 4.3 40.3a4.6 4.6 0 0 0 7.9 2.1l24.3-24.7a91.2 91.2 0 0 1 9.3-9 4.6 4.6 0 0 1 7.4 4.1c0 1.4-.6 2.8-1.7 3.8l-17.3 17.6a91.8 91.8 0 0 0 17 23.3 92 92 0 1 0 138.7-120.7l-.1-.1a4.6 4.6 0 0 1 6.5-6.5l.1.1a101.4 101.4 0 0 1 22 36.4 4.6 4.6 0 0 0 7.7 1.7 127.8 127.8 0 0 0-61.8-111.8A128 128 0 0 0 127.9 0Zm0 65.3a58.7 58.7 0 1 1 0 117.4 58.7 58.7 0 0 1 0-117.4Z"/>
  <circle cx="128" cy="124" r="38.7" fill="#F46800"/>
</svg>
