<svg xmlns="http://www.w3.org/2000/svg" viewBox="0 0 512 512" width="100" height="100" fill="#326CE5">
  <path d="M256 0c-18.23 0-35.14 4.68-50.07 12.9L180.1 59.1l-43.2-24.94-21.64 37.5 43.2 24.94-19.07 33.06-43.2-24.94-21.64 37.5 43.2 24.94-30.08 52.18-43.2-24.94-21.64 37.5 43.2 24.94-19.07 33.06-43.2-24.94-21.64 37.5 43.2 24.94-30.08 52.18-43.2-24.94-21.64 37.5 45.38 26.2c14.92 8.3 31.83 12.98 50.06 12.98 70.69 0 128-57.31 128-128S326.69 0 256 0zM256 368c-61.86 0-112-50.14-112-112s50.14-112 112-112 112 50.14 112 112-50.14 112-112 112z"/>
</svg>
