<svg width="512" height="512" viewBox="0 0 512 512" xmlns="http://www.w3.org/2000/svg" role="img" aria-label="OWASP logo">
  <circle cx="256" cy="256" r="256" fill="#2e2e2e"/>
  <g fill="#fff" transform="translate(130,130) scale(0.5)">
    <path d="M384 128c0 70.7-57.3 128-128 128S128 198.7 128 128 185.3 0 256 0s128 57.3 128 128zm-64 0c0-35.3-28.7-64-64-64s-64 28.7-64 64 28.7 64 64 64 64-28.7 64-64z"/>
    <path d="M292.3 292.3c-25.3 25.3-66.3 25.3-91.6 0s-25.3-66.3 0-91.6l91.6 91.6z"/>
    <path d="M219.7 292.3c25.3 25.3 25.3 66.3 0 91.6s-66.3 25.3-91.6 0l91.6-91.6z"/>
    <path d="M219.7 219.7c-25.3-25.3-25.3-66.3 0-91.6s66.3-25.3 91.6 0l-91.6 91.6z"/>
    <path d="M292.3 219.7c25.3-25.3 66.3-25.3 91.6 0s25.3 66.3 0 91.6l-91.6-91.6z"/>
  </g>
</svg>
