<svg xmlns="http://www.w3.org/2000/svg" viewBox="0 0 512 512" fill="none">
  <circle cx="256" cy="256" r="256" fill="#21759B"/>
  <path fill="#fff" d="M256 32C132.3 32 32 132.3 32 256s100.3 224 224 224 224-100.3 224-224S379.7 32 256 32zm0 432c-114.9 0-208-93.1-208-208S141.1 48 256 48s208 93.1 208 208-93.1 208-208 208zm88.2-224c0 38.7-22.5 71.9-55.1 87.5l35.4 105.4c46.8-27.5 78.3-78.6 78.3-136.4 0-20.5-4-40.1-11.3-58l-3.7-8.7h-43.6l-.2.2zm-110.2 0l35.4 105.1c7.4-3.2 14.2-7.2 20.2-11.9l-28.4-85.5c-.6-1.7-1-3.5-1-5.3 0-6.6 4.1-11.9 10.7-11.9 4.7 0 8.8 3.3 8.8 10.2 0 1.4-.2 2.8-.5 4.1l-7.1 21.2 18.1 54.3c13.2-15.9 20.6-36.3 20.6-58.4 0-20.5-7.4-39.2-19.6-53.4h-57.2c-2.6 0-5.2.2-7.7.4zM120 208c0 37.8 21.4 70.7 52.7 87.1l36.3-105.1c-2.1-5.3-3.3-11.1-3.3-17.1 0-12.6 4.7-24.4 12.5-33.5C176.2 154.6 120 174.4 120 208zm106.6-57.2c-7.7 7.5-12.5 18-12.5 29.6 0 8.6 2.6 16.7 7 23.4l25.2-73.1c-7.6 2.1-14.4 5.7-19.7 10.1zm28.3-12.2c1.7-.1 3.5-.1 5.3-.1 5.6 0 10.9.5 16.1 1.4l-40.5 117.5h43.2l24.6-71.5c1.1-3.2 2.1-6.5 2.1-10 0-10.1-6-17.2-15.7-17.2-4.7 0-9.2 1.8-12.6 4.9z"/>
</svg>
